<svg width="367" height="365" viewBox="0 0 367 365" fill="#F2994A" xmlns="http://www.w3.org/2000/svg">
<path d="M250.527 101.245C226.53 101.239 203.124 108.701 183.55 122.6C159.069 105.022 128.627 97.8731 98.8914 102.72V0H0V365H98.8914V219.989C98.7878 217.613 99.1658 215.241 100.003 213.015C100.839 210.789 102.118 208.756 103.761 207.038C105.403 205.32 107.377 203.953 109.561 203.019C111.746 202.085 114.097 201.603 116.473 201.603C118.849 201.603 121.2 202.085 123.384 203.019C125.569 203.953 127.542 205.32 129.185 207.038C130.828 208.756 132.106 210.789 132.943 213.015C133.78 215.241 134.158 217.613 134.054 219.989V365H232.946V219.989C232.842 217.613 233.22 215.241 234.057 213.015C234.894 210.789 236.172 208.756 237.815 207.038C239.458 205.32 241.431 203.953 243.616 203.019C245.8 202.085 248.152 201.603 250.527 201.603C252.903 201.603 255.254 202.085 257.439 203.019C259.623 203.953 261.597 205.32 263.239 207.038C264.882 208.756 266.161 210.789 266.997 213.015C267.834 215.241 268.212 217.613 268.109 219.989V365H367V217.91C367.009 202.593 364.003 187.424 358.153 173.269C352.304 159.115 343.726 146.254 332.91 135.419C322.093 124.585 309.25 115.99 295.115 110.127C280.979 104.263 265.828 101.245 250.527 101.245Z"/>
</svg>
